<?xml version="1.0" encoding="UTF-8" standalone="no"?>
<!-- Generator: Adobe Illustrator 19.0.0, SVG Export Plug-In . SVG Version: 6.00 Build 0)  -->

<svg
   version="1.1"
   id="Capa_1"
   x="0px"
   y="0px"
   viewBox="0 0 24 24"
   xml:space="preserve"
   sodipodi:docname="battery_unknown.svg"
   inkscape:version="1.2.1 (9c6d41e410, 2022-07-14)"
   width="24"
   height="24"
   xmlns:inkscape="http://www.inkscape.org/namespaces/inkscape"
   xmlns:sodipodi="http://sodipodi.sourceforge.net/DTD/sodipodi-0.dtd"
   xmlns="http://www.w3.org/2000/svg"
   xmlns:svg="http://www.w3.org/2000/svg"><defs
   id="defs9335" /><sodipodi:namedview
   id="namedview9333"
   pagecolor="#ffffff"
   bordercolor="#000000"
   borderopacity="0.25"
   inkscape:showpageshadow="2"
   inkscape:pageopacity="0.0"
   inkscape:pagecheckerboard="0"
   inkscape:deskcolor="#d1d1d1"
   showgrid="false"
   inkscape:zoom="20.213501"
   inkscape:cx="14.495262"
   inkscape:cy="19.739282"
   inkscape:window-width="1920"
   inkscape:window-height="1009"
   inkscape:window-x="-8"
   inkscape:window-y="-8"
   inkscape:window-maximized="1"
   inkscape:current-layer="Capa_1" />
<rect
   style="fill:#222222;stroke-width:1.25115"
   id="rect9454"
   width="24"
   height="24"
   x="0"
   y="0" /><path
   style="fill:#424a60;stroke-width:0.413793"
   d="M 17.18731,24 H 6.8126897 C 6.2495172,24 5.7931034,23.543586 5.7931034,22.980414 V 2.6747586 c 0,-0.5631724 0.4564138,-1.0195862 1.0195863,-1.0195862 H 17.18731 c 0.563173,0 1.019587,0.4564138 1.019587,1.0195862 V 22.980414 C 18.206897,23.543586 17.750483,24 17.18731,24 Z"
   id="path9266" />
<rect
   x="9.9310341"
   style="fill:#d8a852;stroke-width:0.413793"
   width="4.1379309"
   height="1.6551725"
   id="rect9268"
   y="0" />


<path
   style="fill:#292f3a;stroke-width:0.413793"
   d="m 17.18731,2.4827586 c 0.105931,0 0.192,0.086069 0.192,0.192 V 22.980414 c 0,0.105931 -0.08607,0.192 -0.192,0.192 H 6.8126897 c -0.1059311,0 -0.192,-0.08607 -0.192,-0.192 V 2.6747586 c 0,-0.105931 0.086069,-0.192 0.192,-0.192 H 17.18731 m 0,-0.8275862 H 6.8126897 c -0.5631725,0 -1.0195863,0.4564138 -1.0195863,1.0195862 V 22.980414 C 5.7931034,23.543586 6.2495172,24 6.8126897,24 H 17.18731 c 0.563173,0 1.019587,-0.456414 1.019587,-1.019586 V 2.6747586 c 0,-0.5631724 -0.456414,-1.0195862 -1.019587,-1.0195862 z"
   id="path9300" />
<g
   id="g9302">
</g>
<g
   id="g9304">
</g>
<g
   id="g9306">
</g>
<g
   id="g9308">
</g>
<g
   id="g9310">
</g>
<g
   id="g9312">
</g>
<g
   id="g9314">
</g>
<g
   id="g9316">
</g>
<g
   id="g9318">
</g>
<g
   id="g9320">
</g>
<g
   id="g9322">
</g>
<g
   id="g9324">
</g>
<g
   id="g9326">
</g>
<g
   id="g9328">
</g>
<g
   id="g9330">
</g>
<g
   aria-label="?"
   id="text11348"
   style="font-size:12px;font-family:Arial;-inkscape-font-specification:Arial;fill:#ff0000;stroke-width:3.02362"><path
     d="m 11.274789,14.25996 q -0.0059,-0.210937 -0.0059,-0.316406 0,-0.621094 0.175782,-1.072266 0.128906,-0.339843 0.416015,-0.685547 0.210938,-0.251953 0.75586,-0.732421 0.550781,-0.486329 0.714843,-0.773438 0.164063,-0.287109 0.164063,-0.626953 0,-0.6152345 -0.480469,-1.0781251 -0.480469,-0.46875 -1.177734,-0.46875 -0.673828,0 -1.125,0.421875 -0.451172,0.421875 -0.591797,1.3183591 L 9.0365076,10.117382 Q 9.182992,8.9162102 9.9036951,8.2775383 10.630258,7.6388664 11.819711,7.6388664 q 1.259765,0 2.009765,0.6855469 0.75,0.6855469 0.75,1.6582031 0,0.5624996 -0.263672,1.0371096 -0.263671,0.474609 -1.03125,1.154297 -0.515625,0.457031 -0.673828,0.673828 -0.158203,0.216797 -0.234375,0.498047 -0.07617,0.28125 -0.08789,0.914062 z m -0.06445,2.115235 v -1.201172 h 1.201172 v 1.201172 z"
     id="path11537" /></g></svg>
