<?xml version="1.0" encoding="UTF-8" standalone="no"?>
<!-- Generator: Adobe Illustrator 19.0.0, SVG Export Plug-In . SVG Version: 6.00 Build 0)  -->

<svg
   version="1.1"
   id="Capa_1"
   x="0px"
   y="0px"
   viewBox="0 0 24 24"
   xml:space="preserve"
   sodipodi:docname="battery_25.svg"
   inkscape:version="1.2.1 (9c6d41e410, 2022-07-14)"
   width="24"
   height="24"
   inkscape:export-filename="battery_25.png"
   inkscape:export-xdpi="96"
   inkscape:export-ydpi="96"
   xmlns:inkscape="http://www.inkscape.org/namespaces/inkscape"
   xmlns:sodipodi="http://sodipodi.sourceforge.net/DTD/sodipodi-0.dtd"
   xmlns="http://www.w3.org/2000/svg"
   xmlns:svg="http://www.w3.org/2000/svg"><defs
   id="defs9664" /><sodipodi:namedview
   id="namedview9662"
   pagecolor="#ffffff"
   bordercolor="#000000"
   borderopacity="0.25"
   inkscape:showpageshadow="2"
   inkscape:pageopacity="0.0"
   inkscape:pagecheckerboard="0"
   inkscape:deskcolor="#d1d1d1"
   showgrid="false"
   inkscape:zoom="5.0533752"
   inkscape:cx="63.126126"
   inkscape:cy="51.252874"
   inkscape:window-width="1920"
   inkscape:window-height="1009"
   inkscape:window-x="-8"
   inkscape:window-y="-8"
   inkscape:window-maximized="1"
   inkscape:current-layer="Capa_1" />
<rect
   style="fill:#222222;stroke-width:1.25115"
   id="rect9783"
   width="24"
   height="24"
   x="0"
   y="0" /><path
   style="fill:#424a60;stroke-width:0.413793"
   d="M 17.18731,24 H 6.8126897 C 6.2495172,24 5.7931034,23.543586 5.7931034,22.980414 V 2.6747586 c 0,-0.5631724 0.4564138,-1.0195862 1.0195863,-1.0195862 H 17.18731 c 0.563173,0 1.019587,0.4564138 1.019587,1.0195862 V 22.980414 C 18.206897,23.543586 17.750483,24 17.18731,24 Z"
   id="path9567" />
<rect
   x="9.9310341"
   style="fill:#d8a852;stroke-width:0.413793"
   width="4.1379309"
   height="1.6551725"
   id="rect9569"
   y="0" />
<path
   style="fill:#43b05c;stroke-width:0.413793"
   d="M 17.18731,24 H 6.8126897 C 6.2495172,24 5.7931034,23.543586 5.7931034,22.980414 v -5.822897 c 0,-0.563172 0.4564138,-1.019586 1.0195863,-1.019586 H 17.18731 c 0.563173,0 1.019587,0.456414 1.019587,1.019586 v 5.822897 C 18.206897,23.543586 17.750483,24 17.18731,24 Z"
   id="path9571" />
<g
   id="g9627"
   transform="scale(0.4137931)">
	<circle
   style="fill:#a4e869"
   cx="17"
   cy="52"
   r="1"
   id="circle9573" />
	<circle
   style="fill:#a4e869"
   cx="20"
   cy="55"
   r="1"
   id="circle9575" />
	<circle
   style="fill:#a4e869"
   cx="23"
   cy="52"
   r="1"
   id="circle9577" />
	<circle
   style="fill:#a4e869"
   cx="29"
   cy="52"
   r="1"
   id="circle9579" />
	<circle
   style="fill:#a4e869"
   cx="26"
   cy="55"
   r="1"
   id="circle9581" />
	<circle
   style="fill:#a4e869"
   cx="32"
   cy="55"
   r="1"
   id="circle9583" />
	<circle
   style="fill:#a4e869"
   cx="35"
   cy="52"
   r="1"
   id="circle9585" />
	<circle
   style="fill:#a4e869"
   cx="41"
   cy="52"
   r="1"
   id="circle9587" />
	<circle
   style="fill:#a4e869"
   cx="38"
   cy="55"
   r="1"
   id="circle9589" />
	<circle
   style="fill:#a4e869"
   cx="17"
   cy="46"
   r="1"
   id="circle9591" />
	<circle
   style="fill:#a4e869"
   cx="20"
   cy="49"
   r="1"
   id="circle9593" />
	<circle
   style="fill:#a4e869"
   cx="23"
   cy="46"
   r="1"
   id="circle9595" />
	<circle
   style="fill:#a4e869"
   cx="29"
   cy="46"
   r="1"
   id="circle9597" />
	<circle
   style="fill:#a4e869"
   cx="26"
   cy="49"
   r="1"
   id="circle9599" />
	<circle
   style="fill:#a4e869"
   cx="32"
   cy="49"
   r="1"
   id="circle9601" />
	<circle
   style="fill:#a4e869"
   cx="35"
   cy="46"
   r="1"
   id="circle9603" />
	<circle
   style="fill:#a4e869"
   cx="41"
   cy="46"
   r="1"
   id="circle9605" />
	<circle
   style="fill:#a4e869"
   cx="38"
   cy="49"
   r="1"
   id="circle9607" />
	<circle
   style="fill:#a4e869"
   cx="17"
   cy="40"
   r="1"
   id="circle9609" />
	<circle
   style="fill:#a4e869"
   cx="20"
   cy="43"
   r="1"
   id="circle9611" />
	<circle
   style="fill:#a4e869"
   cx="23"
   cy="40"
   r="1"
   id="circle9613" />
	<circle
   style="fill:#a4e869"
   cx="29"
   cy="40"
   r="1"
   id="circle9615" />
	<circle
   style="fill:#a4e869"
   cx="26"
   cy="43"
   r="1"
   id="circle9617" />
	<circle
   style="fill:#a4e869"
   cx="32"
   cy="43"
   r="1"
   id="circle9619" />
	<circle
   style="fill:#a4e869"
   cx="35"
   cy="40"
   r="1"
   id="circle9621" />
	<circle
   style="fill:#a4e869"
   cx="41"
   cy="40"
   r="1"
   id="circle9623" />
	<circle
   style="fill:#a4e869"
   cx="38"
   cy="43"
   r="1"
   id="circle9625" />
</g>
<path
   style="fill:#292f3a;stroke-width:0.413793"
   d="m 17.18731,2.4827586 c 0.105931,0 0.192,0.086069 0.192,0.192 V 22.980414 c 0,0.105931 -0.08607,0.192 -0.192,0.192 H 6.8126897 c -0.1059311,0 -0.192,-0.08607 -0.192,-0.192 V 2.6747586 c 0,-0.105931 0.086069,-0.192 0.192,-0.192 H 17.18731 m 0,-0.8275862 H 6.8126897 c -0.5631725,0 -1.0195863,0.4564138 -1.0195863,1.0195862 V 22.980414 C 5.7931034,23.543586 6.2495172,24 6.8126897,24 H 17.18731 c 0.563173,0 1.019587,-0.456414 1.019587,-1.019586 V 2.6747586 c 0,-0.5631724 -0.456414,-1.0195862 -1.019587,-1.0195862 z"
   id="path9629" />
<g
   id="g9631">
</g>
<g
   id="g9633">
</g>
<g
   id="g9635">
</g>
<g
   id="g9637">
</g>
<g
   id="g9639">
</g>
<g
   id="g9641">
</g>
<g
   id="g9643">
</g>
<g
   id="g9645">
</g>
<g
   id="g9647">
</g>
<g
   id="g9649">
</g>
<g
   id="g9651">
</g>
<g
   id="g9653">
</g>
<g
   id="g9655">
</g>
<g
   id="g9657">
</g>
<g
   id="g9659">
</g>
</svg>
