<?xml version="1.0" encoding="UTF-8" standalone="no"?>
<!-- Generator: Adobe Illustrator 19.0.0, SVG Export Plug-In . SVG Version: 6.00 Build 0)  -->

<svg
   version="1.1"
   id="Capa_1"
   x="0px"
   y="0px"
   viewBox="0 0 24 24"
   xml:space="preserve"
   sodipodi:docname="battery_75.svg"
   width="24"
   height="24"
   inkscape:version="1.2.1 (9c6d41e410, 2022-07-14)"
   xmlns:inkscape="http://www.inkscape.org/namespaces/inkscape"
   xmlns:sodipodi="http://sodipodi.sourceforge.net/DTD/sodipodi-0.dtd"
   xmlns="http://www.w3.org/2000/svg"
   xmlns:svg="http://www.w3.org/2000/svg"><defs
   id="defs10462" /><sodipodi:namedview
   id="namedview10460"
   pagecolor="#ffffff"
   bordercolor="#000000"
   borderopacity="0.25"
   inkscape:showpageshadow="2"
   inkscape:pageopacity="0.0"
   inkscape:pagecheckerboard="0"
   inkscape:deskcolor="#d1d1d1"
   showgrid="false"
   inkscape:zoom="2.5266876"
   inkscape:cx="121.50295"
   inkscape:cy="103.2973"
   inkscape:window-width="1920"
   inkscape:window-height="1009"
   inkscape:window-x="-8"
   inkscape:window-y="-8"
   inkscape:window-maximized="1"
   inkscape:current-layer="Capa_1" />
<rect
   style="fill:#222222;stroke-width:1.25115"
   id="rect10581"
   width="24"
   height="24"
   x="0"
   y="0" /><path
   style="fill:#424a60;stroke-width:0.413793"
   d="M 17.18731,24 H 6.8126897 C 6.2495172,24 5.7931034,23.543586 5.7931034,22.980414 V 2.6747586 c 0,-0.5631724 0.4564138,-1.0195862 1.0195863,-1.0195862 H 17.18731 c 0.563173,0 1.019587,0.4564138 1.019587,1.0195862 V 22.980414 C 18.206897,23.543586 17.750483,24 17.18731,24 Z"
   id="path10321" />
<rect
   x="9.9310341"
   style="fill:#d8a852;stroke-width:0.413793"
   width="4.1379309"
   height="1.6551725"
   id="rect10323"
   y="0" />
<path
   style="fill:#43b05c;stroke-width:0.413793"
   d="M 17.18731,24 H 6.8126897 C 6.2495172,24 5.7931034,23.543586 5.7931034,22.980414 V 10.536828 c 0,-0.5631728 0.4564138,-1.0195866 1.0195863,-1.0195866 H 17.18731 c 0.563173,0 1.019587,0.4564138 1.019587,1.0195866 V 22.980414 C 18.206897,23.543586 17.750483,24 17.18731,24 Z"
   id="path10325" />
<g
   id="g10425"
   transform="scale(0.4137931)">
	<circle
   style="fill:#a4e869"
   cx="17"
   cy="52"
   r="1"
   id="circle10327" />
	<circle
   style="fill:#a4e869"
   cx="20"
   cy="55"
   r="1"
   id="circle10329" />
	<circle
   style="fill:#a4e869"
   cx="23"
   cy="52"
   r="1"
   id="circle10331" />
	<circle
   style="fill:#a4e869"
   cx="29"
   cy="52"
   r="1"
   id="circle10333" />
	<circle
   style="fill:#a4e869"
   cx="26"
   cy="55"
   r="1"
   id="circle10335" />
	<circle
   style="fill:#a4e869"
   cx="32"
   cy="55"
   r="1"
   id="circle10337" />
	<circle
   style="fill:#a4e869"
   cx="35"
   cy="52"
   r="1"
   id="circle10339" />
	<circle
   style="fill:#a4e869"
   cx="41"
   cy="52"
   r="1"
   id="circle10341" />
	<circle
   style="fill:#a4e869"
   cx="38"
   cy="55"
   r="1"
   id="circle10343" />
	<circle
   style="fill:#a4e869"
   cx="17"
   cy="46"
   r="1"
   id="circle10345" />
	<circle
   style="fill:#a4e869"
   cx="20"
   cy="49"
   r="1"
   id="circle10347" />
	<circle
   style="fill:#a4e869"
   cx="23"
   cy="46"
   r="1"
   id="circle10349" />
	<circle
   style="fill:#a4e869"
   cx="29"
   cy="46"
   r="1"
   id="circle10351" />
	<circle
   style="fill:#a4e869"
   cx="26"
   cy="49"
   r="1"
   id="circle10353" />
	<circle
   style="fill:#a4e869"
   cx="32"
   cy="49"
   r="1"
   id="circle10355" />
	<circle
   style="fill:#a4e869"
   cx="35"
   cy="46"
   r="1"
   id="circle10357" />
	<circle
   style="fill:#a4e869"
   cx="41"
   cy="46"
   r="1"
   id="circle10359" />
	<circle
   style="fill:#a4e869"
   cx="38"
   cy="49"
   r="1"
   id="circle10361" />
	<circle
   style="fill:#a4e869"
   cx="17"
   cy="40"
   r="1"
   id="circle10363" />
	<circle
   style="fill:#a4e869"
   cx="20"
   cy="43"
   r="1"
   id="circle10365" />
	<circle
   style="fill:#a4e869"
   cx="23"
   cy="40"
   r="1"
   id="circle10367" />
	<circle
   style="fill:#a4e869"
   cx="29"
   cy="40"
   r="1"
   id="circle10369" />
	<circle
   style="fill:#a4e869"
   cx="26"
   cy="43"
   r="1"
   id="circle10371" />
	<circle
   style="fill:#a4e869"
   cx="32"
   cy="43"
   r="1"
   id="circle10373" />
	<circle
   style="fill:#a4e869"
   cx="35"
   cy="40"
   r="1"
   id="circle10375" />
	<circle
   style="fill:#a4e869"
   cx="41"
   cy="40"
   r="1"
   id="circle10377" />
	<circle
   style="fill:#a4e869"
   cx="38"
   cy="43"
   r="1"
   id="circle10379" />
	<circle
   style="fill:#a4e869"
   cx="17"
   cy="34"
   r="1"
   id="circle10381" />
	<circle
   style="fill:#a4e869"
   cx="20"
   cy="37"
   r="1"
   id="circle10383" />
	<circle
   style="fill:#a4e869"
   cx="23"
   cy="34"
   r="1"
   id="circle10385" />
	<circle
   style="fill:#a4e869"
   cx="29"
   cy="34"
   r="1"
   id="circle10387" />
	<circle
   style="fill:#a4e869"
   cx="26"
   cy="37"
   r="1"
   id="circle10389" />
	<circle
   style="fill:#a4e869"
   cx="32"
   cy="37"
   r="1"
   id="circle10391" />
	<circle
   style="fill:#a4e869"
   cx="35"
   cy="34"
   r="1"
   id="circle10393" />
	<circle
   style="fill:#a4e869"
   cx="41"
   cy="34"
   r="1"
   id="circle10395" />
	<circle
   style="fill:#a4e869"
   cx="38"
   cy="37"
   r="1"
   id="circle10397" />
	<circle
   style="fill:#a4e869"
   cx="17"
   cy="28"
   r="1"
   id="circle10399" />
	<circle
   style="fill:#a4e869"
   cx="20"
   cy="31"
   r="1"
   id="circle10401" />
	<circle
   style="fill:#a4e869"
   cx="23"
   cy="28"
   r="1"
   id="circle10403" />
	<circle
   style="fill:#a4e869"
   cx="29"
   cy="28"
   r="1"
   id="circle10405" />
	<circle
   style="fill:#a4e869"
   cx="26"
   cy="31"
   r="1"
   id="circle10407" />
	<circle
   style="fill:#a4e869"
   cx="32"
   cy="31"
   r="1"
   id="circle10409" />
	<circle
   style="fill:#a4e869"
   cx="35"
   cy="28"
   r="1"
   id="circle10411" />
	<circle
   style="fill:#a4e869"
   cx="41"
   cy="28"
   r="1"
   id="circle10413" />
	<circle
   style="fill:#a4e869"
   cx="38"
   cy="31"
   r="1"
   id="circle10415" />
	<circle
   style="fill:#a4e869"
   cx="20"
   cy="25"
   r="1"
   id="circle10417" />
	<circle
   style="fill:#a4e869"
   cx="26"
   cy="25"
   r="1"
   id="circle10419" />
	<circle
   style="fill:#a4e869"
   cx="32"
   cy="25"
   r="1"
   id="circle10421" />
	<circle
   style="fill:#a4e869"
   cx="38"
   cy="25"
   r="1"
   id="circle10423" />
</g>
<path
   style="fill:#292f3a;stroke-width:0.413793"
   d="m 17.18731,2.4827586 c 0.105931,0 0.192,0.086069 0.192,0.192 V 22.980414 c 0,0.105931 -0.08607,0.192 -0.192,0.192 H 6.8126897 c -0.1059311,0 -0.192,-0.08607 -0.192,-0.192 V 2.6747586 c 0,-0.105931 0.086069,-0.192 0.192,-0.192 H 17.18731 m 0,-0.8275862 H 6.8126897 c -0.5631725,0 -1.0195863,0.4564138 -1.0195863,1.0195862 V 22.980414 C 5.7931034,23.543586 6.2495172,24 6.8126897,24 H 17.18731 c 0.563173,0 1.019587,-0.456414 1.019587,-1.019586 V 2.6747586 c 0,-0.5631724 -0.456414,-1.0195862 -1.019587,-1.0195862 z"
   id="path10427" />
<g
   id="g10429"
   transform="scale(0.4137931)">
</g>
<g
   id="g10431"
   transform="scale(0.4137931)">
</g>
<g
   id="g10433"
   transform="scale(0.4137931)">
</g>
<g
   id="g10435"
   transform="scale(0.4137931)">
</g>
<g
   id="g10437"
   transform="scale(0.4137931)">
</g>
<g
   id="g10439"
   transform="scale(0.4137931)">
</g>
<g
   id="g10441"
   transform="scale(0.4137931)">
</g>
<g
   id="g10443"
   transform="scale(0.4137931)">
</g>
<g
   id="g10445"
   transform="scale(0.4137931)">
</g>
<g
   id="g10447"
   transform="scale(0.4137931)">
</g>
<g
   id="g10449"
   transform="scale(0.4137931)">
</g>
<g
   id="g10451"
   transform="scale(0.4137931)">
</g>
<g
   id="g10453"
   transform="scale(0.4137931)">
</g>
<g
   id="g10455"
   transform="scale(0.4137931)">
</g>
<g
   id="g10457"
   transform="scale(0.4137931)">
</g>
</svg>
