<?xml version="1.0" encoding="UTF-8" standalone="no"?>
<!-- Generator: Adobe Illustrator 19.0.0, SVG Export Plug-In . SVG Version: 6.00 Build 0)  -->

<svg
   version="1.1"
   id="Layer_1"
   x="0px"
   y="0px"
   viewBox="0 0 24 24"
   xml:space="preserve"
   sodipodi:docname="headphones.svg"
   inkscape:version="1.2.1 (9c6d41e410, 2022-07-14)"
   width="24"
   height="24"
   xmlns:inkscape="http://www.inkscape.org/namespaces/inkscape"
   xmlns:sodipodi="http://sodipodi.sourceforge.net/DTD/sodipodi-0.dtd"
   xmlns="http://www.w3.org/2000/svg"
   xmlns:svg="http://www.w3.org/2000/svg"><defs
   id="defs7850" /><sodipodi:namedview
   id="namedview7848"
   pagecolor="#ffffff"
   bordercolor="#000000"
   borderopacity="0.25"
   inkscape:showpageshadow="2"
   inkscape:pageopacity="0.0"
   inkscape:pagecheckerboard="0"
   inkscape:deskcolor="#d1d1d1"
   showgrid="false"
   inkscape:zoom="1.0569881"
   inkscape:cx="226.11418"
   inkscape:cy="289.50184"
   inkscape:window-width="1920"
   inkscape:window-height="1009"
   inkscape:window-x="-8"
   inkscape:window-y="-8"
   inkscape:window-maximized="1"
   inkscape:current-layer="Layer_1" />
<rect
   style="fill:#222222;stroke-width:0.185048"
   id="rect7969"
   width="24"
   height="24"
   x="0"
   y="0" /><g
   id="g7815"
   transform="scale(0.06120076)">
	<path
   style="fill:#77b8e8"
   d="m 298.526,153.455 c -13.935,0 -25.231,-11.296 -25.231,-25.231 0,-42.878 -34.884,-77.761 -77.762,-77.761 -42.877,0 -77.76,34.883 -77.76,77.761 0,13.936 -11.297,25.231 -25.231,25.231 -13.936,0 -25.231,-11.296 -25.231,-25.231 C 67.311,57.521 124.831,0 195.533,0 c 70.704,0 128.225,57.521 128.225,128.224 0,13.935 -11.296,25.231 -25.232,25.231 z"
   id="path7777" />
	<path
   style="fill:#009bde"
   d="M 293.493,45.588 C 275.445,33.15 253.592,25.857 230.062,25.857 c -41.618,0 -78.01,22.807 -97.336,56.577 14.156,-19.365 37.036,-31.971 62.807,-31.971 42.878,0 77.762,34.883 77.762,77.761 0,13.936 11.297,25.231 25.231,25.231 13.936,0 25.231,-11.296 25.231,-25.231 10e-4,-31.459 -11.395,-60.302 -30.264,-82.636 z"
   id="path7779" />
	<g
   id="g7789">
		<g
   id="g7783">
			<path
   style="fill:#333e48"
   d="m 282.882,128.224 c -37.75,0 -68.354,30.603 -68.354,68.355 v 54.957 c 0,37.752 30.604,68.355 68.354,68.355 h 25.582 c 37.752,0 68.355,-30.604 68.355,-68.355 v -54.957 c 0,-37.752 -30.604,-68.355 -68.355,-68.355 z"
   id="path7781" />
		</g>
		<path
   style="fill:#3e4a57"
   d="m 351.239,251.535 c 0,37.752 -30.605,68.355 -68.357,68.355 -37.75,0 -68.354,-30.604 -68.354,-68.355 v -54.957 c 0,-37.752 30.604,-68.355 68.354,-68.355 37.752,0 68.357,30.603 68.357,68.355 z"
   id="path7785" />
		<path
   style="fill:#333e48"
   d="m 328.809,243.823 c 0,27.157 -22.015,49.172 -49.173,49.172 -27.157,0 -49.171,-22.015 -49.171,-49.172 V 204.29 c 0,-27.156 22.014,-49.17 49.171,-49.17 27.158,0 49.173,22.014 49.173,49.17 z"
   id="path7787" />
	</g>
	<g
   id="g7801">
		<g
   id="g7793">
			<path
   style="fill:#333e48"
   d="m 83.687,128.224 c -37.75,0 -68.354,30.603 -68.354,68.355 v 54.957 c 0,37.752 30.604,68.355 68.354,68.355 h 25.583 c 37.751,0 68.355,-30.604 68.355,-68.355 v -54.957 c 0,-37.752 -30.605,-68.355 -68.355,-68.355 z"
   id="path7791" />
		</g>
		<path
   style="fill:#3e4a57"
   d="m 152.044,251.535 c 0,37.752 -30.606,68.355 -68.357,68.355 -37.75,0 -68.354,-30.604 -68.354,-68.355 v -54.957 c 0,-37.752 30.604,-68.355 68.354,-68.355 37.752,0 68.357,30.603 68.357,68.355 z"
   id="path7795" />
		<path
   style="fill:#009bde"
   d="m 129.614,243.823 c 0,27.157 -22.016,49.172 -49.173,49.172 -27.158,0 -49.171,-22.015 -49.171,-49.172 V 204.29 c 0,-27.156 22.013,-49.17 49.171,-49.17 27.157,0 49.173,22.014 49.173,49.17 z"
   id="path7797" />
		<circle
   style="fill:#ffffff"
   cx="80.441002"
   cy="224.058"
   r="29.712999"
   id="circle7799" />
	</g>
	<g
   id="g7813">
		<path
   style="fill:#77b8e8"
   d="m 137.988,392.152 c -34.173,0 -61.974,-27.801 -61.974,-61.973 v -37.185 c 0,-2.445 1.981,-4.427 4.427,-4.427 2.444,0 4.426,1.981 4.426,4.427 v 37.185 c 0,29.29 23.829,53.12 53.121,53.12 29.289,0 53.12,-23.83 53.12,-53.12 0,-2.445 1.982,-4.427 4.427,-4.427 2.444,0 4.427,1.981 4.427,4.427 0,34.173 -27.802,61.973 -61.974,61.973 z"
   id="path7803" />
		<rect
   x="187.409"
   y="292.10999"
   style="fill:#333e48"
   width="16.250999"
   height="43.608002"
   id="rect7805" />
		<path
   style="fill:#ffa400"
   d="m 195.535,271.458 c -3.004,0 -5.439,2.435 -5.439,5.437 v 15.216 h 10.874 v -15.216 c 0.001,-3.002 -2.431,-5.437 -5.435,-5.437 z"
   id="path7807" />
		<rect
   x="187.409"
   y="297.569"
   style="fill:#3e4a57"
   width="16.250999"
   height="4.684"
   id="rect7809" />
		<rect
   x="187.409"
   y="306.57001"
   style="fill:#3e4a57"
   width="16.250999"
   height="4.684"
   id="rect7811" />
	</g>
</g>
<g
   id="g7817"
   transform="scale(0.06120076)">
</g>
<g
   id="g7819"
   transform="scale(0.06120076)">
</g>
<g
   id="g7821"
   transform="scale(0.06120076)">
</g>
<g
   id="g7823"
   transform="scale(0.06120076)">
</g>
<g
   id="g7825"
   transform="scale(0.06120076)">
</g>
<g
   id="g7827"
   transform="scale(0.06120076)">
</g>
<g
   id="g7829"
   transform="scale(0.06120076)">
</g>
<g
   id="g7831"
   transform="scale(0.06120076)">
</g>
<g
   id="g7833"
   transform="scale(0.06120076)">
</g>
<g
   id="g7835"
   transform="scale(0.06120076)">
</g>
<g
   id="g7837"
   transform="scale(0.06120076)">
</g>
<g
   id="g7839"
   transform="scale(0.06120076)">
</g>
<g
   id="g7841"
   transform="scale(0.06120076)">
</g>
<g
   id="g7843"
   transform="scale(0.06120076)">
</g>
<g
   id="g7845"
   transform="scale(0.06120076)">
</g>
</svg>
