<?xml version="1.0" encoding="UTF-8" standalone="no"?>
<!-- Generator: Adobe Illustrator 19.0.0, SVG Export Plug-In . SVG Version: 6.00 Build 0)  -->

<svg
   version="1.1"
   id="Layer_1"
   x="0px"
   y="0px"
   viewBox="0 0 128 128"
   xml:space="preserve"
   sodipodi:docname="icon.svg"
   inkscape:version="1.2.1 (9c6d41e410, 2022-07-14)"
   width="128"
   height="128"
   inkscape:export-filename="..\png\icon.png"
   inkscape:export-xdpi="96"
   inkscape:export-ydpi="96"
   xmlns:inkscape="http://www.inkscape.org/namespaces/inkscape"
   xmlns:sodipodi="http://sodipodi.sourceforge.net/DTD/sodipodi-0.dtd"
   xmlns="http://www.w3.org/2000/svg"
   xmlns:svg="http://www.w3.org/2000/svg"><defs
   id="defs7850" /><sodipodi:namedview
   id="namedview7848"
   pagecolor="#ffffff"
   bordercolor="#000000"
   borderopacity="0.25"
   inkscape:showpageshadow="2"
   inkscape:pageopacity="0.0"
   inkscape:pagecheckerboard="0"
   inkscape:deskcolor="#d1d1d1"
   showgrid="false"
   inkscape:zoom="4.2279524"
   inkscape:cx="53.21725"
   inkscape:cy="80.890219"
   inkscape:window-width="1920"
   inkscape:window-height="1009"
   inkscape:window-x="-8"
   inkscape:window-y="-8"
   inkscape:window-maximized="1"
   inkscape:current-layer="Layer_1" />

<g
   id="g7817"
   transform="matrix(0.06120076,0,0,0.06120076,16.027749,0.27539602)">
</g>
<g
   id="g7819"
   transform="matrix(0.06120076,0,0,0.06120076,16.027749,0.27539602)">
</g>
<g
   id="g7821"
   transform="matrix(0.06120076,0,0,0.06120076,16.027749,0.27539602)">
</g>
<g
   id="g7823"
   transform="matrix(0.06120076,0,0,0.06120076,16.027749,0.27539602)">
</g>
<g
   id="g7825"
   transform="matrix(0.06120076,0,0,0.06120076,16.027749,0.27539602)">
</g>
<g
   id="g7827"
   transform="matrix(0.06120076,0,0,0.06120076,16.027749,0.27539602)">
</g>
<g
   id="g7829"
   transform="matrix(0.06120076,0,0,0.06120076,16.027749,0.27539602)">
</g>
<g
   id="g7831"
   transform="matrix(0.06120076,0,0,0.06120076,16.027749,0.27539602)">
</g>
<g
   id="g7833"
   transform="matrix(0.06120076,0,0,0.06120076,16.027749,0.27539602)">
</g>
<g
   id="g7835"
   transform="matrix(0.06120076,0,0,0.06120076,16.027749,0.27539602)">
</g>
<g
   id="g7837"
   transform="matrix(0.06120076,0,0,0.06120076,16.027749,0.27539602)">
</g>
<g
   id="g7839"
   transform="matrix(0.06120076,0,0,0.06120076,16.027749,0.27539602)">
</g>
<g
   id="g7841"
   transform="matrix(0.06120076,0,0,0.06120076,16.027749,0.27539602)">
</g>
<g
   id="g7843"
   transform="matrix(0.06120076,0,0,0.06120076,16.027749,0.27539602)">
</g>
<g
   id="g7845"
   transform="matrix(0.06120076,0,0,0.06120076,16.027749,0.27539602)">
</g>
<g
   id="g9302"
   transform="translate(-2.2400601,-1.6724568)">
</g><g
   id="g9304"
   transform="translate(-2.2400601,-1.6724568)">
</g><g
   id="g9306"
   transform="translate(-2.2400601,-1.6724568)">
</g><g
   id="g9308"
   transform="translate(-2.2400601,-1.6724568)">
</g><g
   id="g9310"
   transform="translate(-2.2400601,-1.6724568)">
</g><g
   id="g9312"
   transform="translate(-2.2400601,-1.6724568)">
</g><g
   id="g9314"
   transform="translate(-2.2400601,-1.6724568)">
</g><g
   id="g9316"
   transform="translate(-2.2400601,-1.6724568)">
</g><g
   id="g9318"
   transform="translate(-2.2400601,-1.6724568)">
</g><g
   id="g9320"
   transform="translate(-2.2400601,-1.6724568)">
</g><g
   id="g9322"
   transform="translate(-2.2400601,-1.6724568)">
</g><g
   id="g9324"
   transform="translate(-2.2400601,-1.6724568)">
</g><g
   id="g9326"
   transform="translate(-2.2400601,-1.6724568)">
</g><g
   id="g9328"
   transform="translate(-2.2400601,-1.6724568)">
</g><g
   id="g9330"
   transform="translate(-2.2400601,-1.6724568)">
</g><circle
   style="fill:#f5f5f5;stroke-width:0.159712"
   id="path11900"
   cx="64"
   cy="64"
   r="64" /><g
   id="g7815"
   transform="matrix(0.27903681,0,0,0.27903681,4.806489,11.352227)">
	<path
   style="fill:#77b8e8"
   d="m 298.526,153.455 c -13.935,0 -25.231,-11.296 -25.231,-25.231 0,-42.878 -34.884,-77.761 -77.762,-77.761 -42.877,0 -77.76,34.883 -77.76,77.761 0,13.936 -11.297,25.231 -25.231,25.231 -13.936,0 -25.231,-11.296 -25.231,-25.231 C 67.311,57.521 124.831,0 195.533,0 c 70.704,0 128.225,57.521 128.225,128.224 0,13.935 -11.296,25.231 -25.232,25.231 z"
   id="path7777" />
	<path
   style="fill:#009bde"
   d="M 293.493,45.588 C 275.445,33.15 253.592,25.857 230.062,25.857 c -41.618,0 -78.01,22.807 -97.336,56.577 14.156,-19.365 37.036,-31.971 62.807,-31.971 42.878,0 77.762,34.883 77.762,77.761 0,13.936 11.297,25.231 25.231,25.231 13.936,0 25.231,-11.296 25.231,-25.231 10e-4,-31.459 -11.395,-60.302 -30.264,-82.636 z"
   id="path7779" />
	<g
   id="g7789">
		<g
   id="g7783">
			<path
   style="fill:#333e48"
   d="m 282.882,128.224 c -37.75,0 -68.354,30.603 -68.354,68.355 v 54.957 c 0,37.752 30.604,68.355 68.354,68.355 h 25.582 c 37.752,0 68.355,-30.604 68.355,-68.355 v -54.957 c 0,-37.752 -30.604,-68.355 -68.355,-68.355 z"
   id="path7781" />
		</g>
		<path
   style="fill:#3e4a57"
   d="m 351.239,251.535 c 0,37.752 -30.605,68.355 -68.357,68.355 -37.75,0 -68.354,-30.604 -68.354,-68.355 v -54.957 c 0,-37.752 30.604,-68.355 68.354,-68.355 37.752,0 68.357,30.603 68.357,68.355 z"
   id="path7785" />
		<path
   style="fill:#333e48"
   d="m 328.809,243.823 c 0,27.157 -22.015,49.172 -49.173,49.172 -27.157,0 -49.171,-22.015 -49.171,-49.172 V 204.29 c 0,-27.156 22.014,-49.17 49.171,-49.17 27.158,0 49.173,22.014 49.173,49.17 z"
   id="path7787" />
	</g>
	<g
   id="g7801">
		<g
   id="g7793">
			<path
   style="fill:#333e48"
   d="m 83.687,128.224 c -37.75,0 -68.354,30.603 -68.354,68.355 v 54.957 c 0,37.752 30.604,68.355 68.354,68.355 h 25.583 c 37.751,0 68.355,-30.604 68.355,-68.355 v -54.957 c 0,-37.752 -30.605,-68.355 -68.355,-68.355 z"
   id="path7791" />
		</g>
		<path
   style="fill:#3e4a57"
   d="m 152.044,251.535 c 0,37.752 -30.606,68.355 -68.357,68.355 -37.75,0 -68.354,-30.604 -68.354,-68.355 v -54.957 c 0,-37.752 30.604,-68.355 68.354,-68.355 37.752,0 68.357,30.603 68.357,68.355 z"
   id="path7795" />
		<path
   style="fill:#009bde"
   d="m 129.614,243.823 c 0,27.157 -22.016,49.172 -49.173,49.172 -27.158,0 -49.171,-22.015 -49.171,-49.172 V 204.29 c 0,-27.156 22.013,-49.17 49.171,-49.17 27.157,0 49.173,22.014 49.173,49.17 z"
   id="path7797" />
		<circle
   style="fill:#ffffff"
   cx="80.441002"
   cy="224.058"
   r="29.712999"
   id="circle7799" />
	</g>
	<g
   id="g7813">
		<path
   style="fill:#77b8e8"
   d="m 137.988,392.152 c -34.173,0 -61.974,-27.801 -61.974,-61.973 v -37.185 c 0,-2.445 1.981,-4.427 4.427,-4.427 2.444,0 4.426,1.981 4.426,4.427 v 37.185 c 0,29.29 23.829,53.12 53.121,53.12 29.289,0 53.12,-23.83 53.12,-53.12 0,-2.445 1.982,-4.427 4.427,-4.427 2.444,0 4.427,1.981 4.427,4.427 0,34.173 -27.802,61.973 -61.974,61.973 z"
   id="path7803" />
		<rect
   x="187.409"
   y="292.10999"
   style="fill:#333e48"
   width="16.250999"
   height="43.608002"
   id="rect7805" />
		<path
   style="fill:#ffa400"
   d="m 195.535,271.458 c -3.004,0 -5.439,2.435 -5.439,5.437 v 15.216 h 10.874 v -15.216 c 0.001,-3.002 -2.431,-5.437 -5.435,-5.437 z"
   id="path7807" />
		<rect
   x="187.409"
   y="297.569"
   style="fill:#3e4a57"
   width="16.250999"
   height="4.684"
   id="rect7809" />
		<rect
   x="187.409"
   y="306.57001"
   style="fill:#3e4a57"
   width="16.250999"
   height="4.684"
   id="rect7811" />
	</g>
</g><g
   id="g1320"
   transform="matrix(0,1.1626422,-1.1626422,0,152.0424,35.994849)"
   style="opacity:0.86956522"><g
     id="g366"
     transform="matrix(0.16046615,0,0,0.16046615,-102.1215,-1.8836243)"><path
       style="fill:#424a60;stroke-width:7.03278"
       d="M 937.86382,691.88141 H 761.53814 c -9.57164,0 -17.32878,-7.75717 -17.32878,-17.32877 V 329.44045 c 0,-9.5716 7.75714,-17.32874 17.32878,-17.32874 h 176.32568 c 9.57157,0 17.32873,7.75714 17.32873,17.32874 v 345.11219 c 0,9.5716 -7.75716,17.32877 -17.32873,17.32877 z"
       id="path9266" /><rect
       x="814.53711"
       style="fill:#d8a852;stroke-width:7.03278"
       width="70.327721"
       height="28.13109"
       id="rect9268"
       y="283.98062" /><path
       style="fill:#292f3a;stroke-width:7.03278"
       d="m 937.86382,326.17725 c 1.80036,0 3.26314,1.46281 3.26314,3.2632 v 345.11219 c 0,1.8004 -1.46278,3.26321 -3.26314,3.26321 H 761.53814 c -1.80041,0 -3.26322,-1.46283 -3.26322,-3.26321 V 329.44045 c 0,-1.80039 1.46281,-3.2632 3.26322,-3.2632 h 176.32568 m 0,-14.06554 H 761.53814 c -9.57164,0 -17.32878,7.75714 -17.32878,17.32874 v 345.11219 c 0,9.5716 7.75714,17.32877 17.32878,17.32877 h 176.32568 c 9.57157,0 17.32873,-7.75717 17.32873,-17.32877 V 329.44045 c 0,-9.5716 -7.75716,-17.32874 -17.32873,-17.32874 z"
       id="path9300" /></g><rect
     style="fill:#73d216;fill-opacity:0.918539;stroke-width:0.204386"
     id="rect1076"
     width="28.81794"
     height="39.848392"
     x="19.555952"
     y="67.034485"
     ry="0" /></g><g
   id="g11846"
   transform="matrix(0.05532353,0,0,0.05532353,44.130586,62.596014)"
   style="opacity:0.86956522"><path
     style="fill:#005a95"
     d="M 256,0 C 166.783,0 94.199,72.583 94.199,161.801 V 350.2 c 0,89.217 72.584,161.8 161.801,161.8 89.217,0 161.801,-72.583 161.801,-161.801 V 161.801 C 417.801,72.583 345.217,0 256,0 Z"
     id="path11784" /><path
     style="fill:#31aaef"
     d="M 94.199,161.801 V 350.2 C 94.199,439.417 166.783,512 256,512 V 0 C 166.783,0 94.199,72.583 94.199,161.801 Z"
     id="path11786" /><path
     style="fill:#a6d9f3"
     d="m 255.997,438.237 c -2.203,0 -4.423,-0.43 -6.534,-1.315 -6.287,-2.634 -10.379,-8.785 -10.379,-15.601 V 297.633 l -54.057,54.057 c -6.605,6.606 -17.317,6.606 -23.923,0 -6.606,-6.606 -6.606,-17.317 0,-23.923 l 70.973,-70.973 -70.973,-70.973 c -6.606,-6.606 -6.606,-17.317 0,-23.923 6.605,-6.605 17.317,-6.606 23.923,0 l 54.057,54.057 V 92.267 c 0,-6.817 4.092,-12.968 10.379,-15.601 6.285,-2.636 13.541,-1.238 18.4,3.543 l 82.934,81.593 c 3.216,3.163 5.034,7.479 5.052,11.99 0.018,4.511 -1.765,8.84 -4.955,12.03 l -70.973,70.973 70.973,70.973 c 3.189,3.189 4.973,7.52 4.955,12.03 -0.018,4.51 -1.837,8.827 -5.052,11.99 l -82.934,81.593 c -3.227,3.173 -7.512,4.856 -11.866,4.856 z m 16.919,-140.604 v 83.314 l 41.996,-41.317 z m 0,-164.992 v 83.314 l 41.996,-41.996 z"
     id="path11788" /><path
     style="fill:#ffffff"
     d="m 267.864,80.208 c -4.861,-4.782 -12.115,-6.179 -18.4,-3.543 -6.288,2.634 -10.38,8.785 -10.38,15.602 v 123.687 l -54.057,-54.057 c -6.605,-6.606 -17.317,-6.605 -23.923,0 -6.606,6.605 -6.606,17.317 0,23.923 l 70.554,70.556 h 48.682 l 70.555,-70.556 c 3.189,-3.189 4.973,-7.52 4.955,-12.03 -0.018,-4.51 -1.837,-8.827 -5.052,-11.99 z m 5.052,135.747 v -83.314 l 41.996,41.317 z"
     id="path11790" /><g
     id="g11792">
</g><g
     id="g11794">
</g><g
     id="g11796">
</g><g
     id="g11798">
</g><g
     id="g11800">
</g><g
     id="g11802">
</g><g
     id="g11804">
</g><g
     id="g11806">
</g><g
     id="g11808">
</g><g
     id="g11810">
</g><g
     id="g11812">
</g><g
     id="g11814">
</g><g
     id="g11816">
</g><g
     id="g11818">
</g><g
     id="g11820">
</g></g><rect
   style="fill:#ffffff;fill-opacity:0.918539;stroke-width:0.169729"
   id="rect420"
   width="75.42495"
   height="32.371544"
   x="24.023224"
   y="10.713727"
   ry="7.1915641" /><text
   xml:space="preserve"
   style="font-size:33.5476px;font-family:Arial;-inkscape-font-specification:Arial;fill:#ff0000;stroke-width:2.53588"
   x="27.204962"
   y="35.988789"
   id="text11956"><tspan
     sodipodi:role="line"
     id="tspan11954"
     x="27.204962"
     y="35.988789"
     style="font-size:33.5476px;fill:#ff0000;stroke-width:2.53588">µ<tspan
   style="fill:#000000;stroke-width:2.53588"
   id="tspan12060">sini</tspan></tspan></text></svg>
